<svg width="165" height="74" viewBox="0 0 165 74" fill="none" xmlns="http://www.w3.org/2000/svg">
<g clip-path="url(#clip0_2169_1448)">
<path d="M136.805 25.17C136.414 24.65 136.023 24.26 134.134 24.13C133.678 24.065 132.049 24.065 129.379 24.065C122.344 24.065 117.524 26.21 115.113 30.435C115.765 26.145 111.661 24.065 102.672 24.065C92.1846 24 85.6056 28.29 82.9349 36.74C81.9578 39.21 81.8927 41.94 82.6092 44.54L80.1339 44.735C78.1798 44.865 75.6394 44.995 74.076 44.995C70.2328 44.995 67.8227 44.345 66.9108 43.045C66.064 41.875 66.1942 39.73 67.1062 36.545C68.7347 31.345 72.7081 29.005 79.0266 29.005C82.3487 29.005 85.5405 29.33 85.5405 29.33C85.9313 29.265 86.1918 28.875 86.1267 28.485C86.1267 28.485 86.1267 28.485 86.1267 28.42L86.0616 27.9L85.8661 26.145C85.7359 24.975 84.8891 24.325 83.3257 24.065C81.9578 24.065 80.8505 24 79.2871 24H79.222C70.8842 24 65.0869 26.795 61.83 32.255C63.0025 26.73 59.1593 24 50.2353 24C46.6526 23.935 43.1351 24.065 39.6177 24.455C38.2497 24.455 37.0772 25.235 36.6213 26.535L35.9047 28.81C35.7745 29.2 35.9699 29.46 36.491 29.46C36.8818 29.395 38.38 29.265 40.9856 29.07C44.3728 28.68 46.9132 28.55 48.5417 28.55C53.4271 28.55 55.5115 29.785 54.7298 32.255C54.5996 32.775 54.1436 33.165 53.6225 33.295C48.9976 34.075 45.2847 34.595 42.614 34.985C34.9277 35.895 30.5634 38.3 29.3257 42.135C27.6973 47.335 31.801 49.935 41.637 49.935C45.7407 50 49.9096 49.675 53.9482 49.09C55.8372 48.765 56.8143 48.245 57.2051 47.01L59.029 41.16C58.8336 47.01 62.9373 49.935 71.2751 49.935C74.2063 50 77.0724 49.87 79.9385 49.545C81.6321 49.22 82.4789 48.895 82.8698 47.595L83.2606 45.775C85.0193 48.57 88.9277 49.935 94.9856 49.935C101.369 49.935 105.082 49.74 106.124 49.415C106.841 49.285 107.492 48.765 107.753 48.05C107.818 47.92 107.818 47.79 107.818 47.66L108.6 45.19C108.73 44.735 108.534 44.54 108.013 44.54L103.91 44.735C101.174 44.865 99.0893 44.995 97.526 44.93C95.5067 45.06 93.4874 44.865 91.5332 44.345C89.9699 43.825 88.9928 42.265 89.2534 40.64L102.151 38.95C107.948 38.235 111.791 36.415 113.746 33.62L109.381 48.895C109.316 49.155 109.316 49.415 109.446 49.61C109.707 49.805 109.967 49.935 110.293 49.87H115.635C116.221 49.935 116.872 49.61 117.002 48.96L121.692 32.45C122.344 30.305 124.298 29.2 127.75 29.2C130.877 29.2 133.222 29.2 134.72 29.265C134.785 29.265 134.785 29.265 134.85 29.265C135.372 29.265 135.828 28.94 135.958 28.42L136.805 26.145C137.065 25.95 137.065 25.495 136.805 25.17ZM50.7564 44.995C48.3462 45.32 45.9361 45.45 43.5911 45.385C38.1846 45.385 35.7745 44.28 36.491 42.07C37.0121 40.51 38.38 39.535 40.7901 39.21L53.1014 37.585L50.7564 44.995ZM107.818 31.67C107.297 33.36 104.887 34.53 100.587 35.115L90.2956 36.61L90.5561 35.765C91.0772 33.49 92.3149 31.475 94.2039 30.11C95.7672 29.135 98.3076 28.615 101.825 28.615C106.45 28.55 108.469 29.59 107.818 31.67Z" fill="#80C343"/>
</g>
<defs>
<clipPath id="clip0_2169_1448">
<rect width="108" height="26" fill="white" transform="translate(29 24)"/>
</clipPath>
</defs>
</svg>
