<svg xmlns="http://www.w3.org/2000/svg" viewBox="0 0 85 57">
  <g id="Layer_2" data-name="Layer 2">
    <g id="Layer_1-2" data-name="Layer 1">
      <g id="Group_739" data-name="Group 739">
        <g id="Group_738" data-name="Group 738">
          <path id="Path_472" data-name="Path 472" d="M59,21.33c-.74.68-1.5,1.27-2.13,2a9.3,9.3,0,0,0,2.85,14.64c.44.21.46.25.3.72a23.28,23.28,0,0,1-3.47,6.55,25.85,25.85,0,0,1-2.23,2.67,5.32,5.32,0,0,1-6,1.2c-.77-.29-1.51-.66-2.29-.91a8.12,8.12,0,0,0-5.62.3,23.26,23.26,0,0,1-2.65,1,4.45,4.45,0,0,1-3.93-.81,12.61,12.61,0,0,1-2.36-2.37,27,27,0,0,1-5.66-12.36,17.64,17.64,0,0,1,.47-9.09,10.76,10.76,0,0,1,7.18-7.11,8.61,8.61,0,0,1,5.9.26l2.4.92a3.67,3.67,0,0,0,2.65,0c1.21-.46,2.41-.95,3.64-1.32a10.15,10.15,0,0,1,10.8,3.52Z"/>
          <path id="Path_473" data-name="Path 473" d="M51.28,6.83c.55,5.28-4,10.22-8.57,9.88a8.6,8.6,0,0,1,2.07-6.35A9.46,9.46,0,0,1,51.28,6.83Z"/>
        </g>
        <rect id="Rectangle_178" data-name="Rectangle 178" width="85" height="57" fill="none"/>
      </g>
    </g>
  </g>
</svg>
