<svg width="165" height="74" viewBox="0 0 165 74" fill="none" xmlns="http://www.w3.org/2000/svg">
<path fill-rule="evenodd" clip-rule="evenodd" d="M152.353 25.936C152.953 25.9403 153.543 26.0959 154.067 26.3884C154.616 26.6823 155.068 27.1289 155.369 27.6743C155.673 28.2031 155.833 28.8025 155.833 29.4126C155.833 30.0227 155.673 30.6222 155.369 31.1509C155.072 31.6982 154.622 32.1476 154.075 32.4448C153.548 32.747 152.952 32.9058 152.345 32.9051C151.735 32.905 151.136 32.7463 150.606 32.4448C150.06 32.1486 149.613 31.6987 149.32 31.1509C149.016 30.625 148.854 30.0284 148.852 29.4206C148.855 28.8078 149.016 28.2063 149.32 27.6743C149.628 27.1291 150.085 26.6831 150.638 26.3884C151.162 26.0949 151.752 25.9392 152.353 25.936ZM152.353 26.5154C151.853 26.5188 151.361 26.647 150.924 26.8885C150.464 27.135 150.086 27.5101 149.836 27.968C149.579 28.4092 149.443 28.91 149.439 29.4206C149.438 29.9281 149.573 30.4267 149.828 30.8652C150.078 31.3209 150.452 31.6955 150.908 31.9447C151.348 32.1945 151.846 32.3258 152.353 32.3258C152.859 32.3258 153.357 32.1945 153.797 31.9447C154.249 31.6929 154.62 31.3187 154.869 30.8652C155.124 30.4267 155.259 29.9281 155.258 29.4206C155.254 28.9112 155.12 28.4112 154.869 27.968C154.616 27.512 154.239 27.1375 153.781 26.8885C153.343 26.6489 152.852 26.5208 152.353 26.5154ZM150.821 31.3494V27.6029H152.106C152.429 27.5894 152.753 27.6214 153.067 27.6981C153.258 27.7658 153.423 27.894 153.535 28.0632C153.648 28.2235 153.709 28.4147 153.71 28.6109C153.713 28.8799 153.611 29.1394 153.424 29.3332C153.211 29.5417 152.928 29.6634 152.63 29.6746C152.751 29.7189 152.861 29.7863 152.956 29.873C153.167 30.0995 153.351 30.3499 153.503 30.6191L153.964 31.3494H153.226L152.892 30.7541C152.738 30.4277 152.522 30.1339 152.257 29.8889C152.115 29.7926 151.945 29.7453 151.773 29.7539H151.416V31.3415L150.821 31.3494ZM151.424 29.238H152.162C152.411 29.2619 152.661 29.2064 152.876 29.0792C152.982 28.9961 153.051 28.8756 153.071 28.7427C153.09 28.6097 153.057 28.4745 152.98 28.3649C152.915 28.278 152.827 28.2118 152.726 28.1744C152.527 28.1188 152.32 28.0973 152.114 28.1109H151.424V29.238Z" fill="#0057B7"/>
<path fill-rule="evenodd" clip-rule="evenodd" d="M90.6213 22.0395H90.7404V30.0564H82.6837V22.0395H90.6213ZM55.4103 38.9862L74.135 40.145C74.5091 40.1492 74.8664 40.3008 75.1294 40.5668C75.3925 40.8328 75.54 41.1918 75.5399 41.5659C75.5399 41.7514 75.5034 41.9351 75.4324 42.1066C75.3614 42.278 75.2573 42.4337 75.1261 42.5649C74.9949 42.6961 74.8392 42.8002 74.6678 42.8712C74.4963 42.9422 74.3126 42.9788 74.1271 42.9788H47.4489V32.5488C48.2427 35.7714 51.0923 38.4067 55.3865 38.9862H55.4103ZM47.4727 51.0354H74.7462C76.6482 51.0308 78.4898 50.367 79.9574 49.157C81.4249 47.9471 82.4277 46.2658 82.7949 44.3996C83.1178 46.2462 84.0776 47.9213 85.5074 49.1336C86.9373 50.3459 88.7467 51.0188 90.6213 51.0354H108.084C109.95 51.0281 111.755 50.3701 113.188 49.1747C114.621 47.9793 115.592 46.3215 115.934 44.4869V51.0354H143.882C146.055 51.0291 148.137 50.1632 149.673 48.6269C151.21 47.0905 152.076 45.0086 152.082 42.8359V41.6691C152.076 39.4963 151.21 37.4144 149.673 35.8781C148.137 34.3417 146.055 33.4758 143.882 33.4696L142.35 33.3981C133.619 33.0171 124.983 32.6044 116.299 32.136C116.974 35.5413 119.847 38.375 124.356 38.9862L143.287 40.145C143.662 40.1471 144.022 40.2978 144.287 40.564C144.551 40.8302 144.7 41.1904 144.7 41.5659C144.7 41.9406 144.551 42.3 144.286 42.5649C144.021 42.8299 143.662 42.9788 143.287 42.9788H116.021V32.1202L107.925 31.7074V40.9864C107.925 41.618 107.674 42.2237 107.228 42.6702C106.781 43.1168 106.175 43.3677 105.544 43.3677H93.1216C92.4901 43.3677 91.8844 43.1168 91.4378 42.6702C90.9912 42.2237 90.7404 41.618 90.7404 40.9864V30.8184L82.6837 30.3977V39.6053C82.2062 37.8712 81.169 36.3435 79.7336 35.2598C78.2981 34.176 76.5448 33.5969 74.7462 33.6124L39.0748 31.2788V51.0354H47.4489H47.4727ZM81.382 30.0564V21.9998H55.4103C53.5837 22.0116 51.8128 22.63 50.376 23.7579C48.9392 24.8858 47.9179 26.4592 47.4727 28.2308V22.0395H31.9469L26.6605 30.0564H81.382ZM35.6537 31.0804L22.8504 51.0354H12.8333L26.3271 30.5406L35.6379 31.0804H35.6537ZM152.074 30.0564V21.9998H124.348C122.199 22.0055 120.137 22.8515 118.604 24.3569C117.07 25.8623 116.186 27.9079 116.141 30.0564H152.074ZM107.957 30.0564V22.0395H116.021V30.0564H107.957Z" fill="#0057B7"/>
</svg>
