<svg width="87" height="73" viewBox="0 0 87 73" fill="none" xmlns="http://www.w3.org/2000/svg">
<path d="M43.4902 14.9934C47.7437 14.9921 51.9021 16.2523 55.4393 18.6147C58.9765 20.977 61.7336 24.3353 63.3619 28.2648C64.9903 32.1942 65.4167 36.5184 64.5872 40.6902C63.7577 44.862 61.7095 48.6942 58.7018 51.7018C55.6942 54.7095 51.862 56.7577 47.6902 57.5872C43.5184 58.4167 39.1942 57.9903 35.2648 56.3619C31.3353 54.7336 27.977 51.9765 25.6147 48.4393C23.2523 44.9021 21.9921 40.7437 21.9934 36.4902C21.9934 30.7889 24.2582 25.3211 28.2897 21.2897C32.3211 17.2582 37.7889 14.9934 43.4902 14.9934M43.4902 17.32C39.0552 17.3212 34.7577 18.86 31.33 21.6745C27.9024 24.4889 25.5566 28.4047 24.6924 32.7548C23.8282 37.1048 24.499 41.62 26.5906 45.5309C28.6821 49.4418 32.065 52.5065 36.1629 54.2028C40.2607 55.8991 44.82 56.1221 49.0638 54.8338C53.3076 53.5455 56.9735 50.8256 59.4367 47.1375C61.9 43.4493 63.0082 39.0212 62.5727 34.6076C62.1371 30.194 60.1847 26.0679 57.0481 22.9324C55.269 21.1504 53.1554 19.7373 50.8288 18.7742C48.5022 17.8111 46.0083 17.3169 43.4902 17.32" fill="#0087CC"/>
<path d="M56.9033 37.7872H60.1437V40.4897H53.6758V31.2416H56.9162L56.9033 37.7872ZM46.3784 37.2752L41.0707 41.4489L36.2165 37.6317C35.8557 38.4835 35.2509 39.2094 34.4781 39.718C33.7054 40.2267 32.7995 40.4952 31.8744 40.4897H27.7267V31.2416H31.8744C32.7991 31.23 33.7062 31.4953 34.4788 32.0035C35.2515 32.5117 35.8544 33.2395 36.2101 34.0932L41.0707 30.2824L42.8658 31.6953L38.433 35.1949L39.2884 35.843L43.7343 32.3433L45.5359 33.7562L41.0836 37.2558L41.9391 37.9039L46.3914 34.4042V31.2416H49.6318V37.7872H52.8722V40.4897H46.3784V37.2752ZM33.5594 35.8624C33.5743 35.5981 33.5323 35.3338 33.4361 35.0872C33.3399 34.8406 33.1918 34.6176 33.0019 34.4332C32.812 34.2488 32.5847 34.1074 32.3354 34.0186C32.0861 33.9297 31.8205 33.8955 31.5568 33.9182H30.831V37.865H31.5374C31.8026 37.8907 32.0703 37.8586 32.322 37.7711C32.5737 37.6836 32.8035 37.5427 32.9956 37.358C33.1877 37.1732 33.3375 36.9492 33.4349 36.7011C33.5322 36.453 33.5747 36.1868 33.5594 35.9207" fill="#0087CC"/>
</svg>
