<svg width="73" height="73" viewBox="0 0 73 73" fill="none" xmlns="http://www.w3.org/2000/svg">
<path fill-rule="evenodd" clip-rule="evenodd" d="M47.6926 30.8419H44.7485L40.6229 42.1634H43.5677L47.6926 30.8438V30.8419ZM36.498 55C36.3158 55 36.1323 54.9961 35.9501 54.9909L39.7308 44.6H44.9327C45.847 44.6 46.8501 43.8986 47.1616 43.0404L51.263 31.7738C51.9357 29.9282 50.8803 28.4209 48.9119 28.4209H41.6966L35.6405 45.063L32.204 54.4958C24.06 52.5615 18 45.2367 18 36.5C18 28.0141 23.7145 20.8617 31.5065 18.6825L27.9628 28.4209L22.0713 44.6H25.9899L30.999 30.8523H33.9484L28.9392 44.6H32.8577L37.5273 31.7738C38.1987 29.9282 37.1433 28.4209 35.1814 28.4209H31.884L35.6673 18.0209C35.9442 18.0072 36.2211 18 36.498 18C46.7182 18 55 26.2828 55 36.5C55 46.7172 46.7182 55 36.498 55Z" fill="#00A1DD"/>
</svg>
