<svg width="165" height="74" viewBox="0 0 165 74" fill="none" xmlns="http://www.w3.org/2000/svg">
<g clip-path="url(#clip0_2169_1457)">
<path d="M72.1205 27.8973C70.8525 27.9052 69.6029 28.2125 68.4662 28.7957C67.3295 29.379 66.3354 30.223 65.5592 31.264V28.2508H60.0303V49.1466H65.5592V37.2567C65.5592 35.1132 67.1806 32.8407 70.1153 32.8407C72.4015 32.8407 74.7687 34.4904 74.7687 37.2567V49.1466H80.2977V36.1905C80.2977 31.3874 76.9846 27.8973 72.1205 27.8973Z" fill="#E51E25"/>
<path d="M119.579 28.2509L114.579 42.4863L109.585 28.2509H103.267L111.553 49.1411H117.606L125.886 28.2509H119.579Z" fill="#E51E25"/>
<path d="M43.5297 34.5465C44.0286 33.8739 44.6746 33.3343 45.4142 32.9723C46.1539 32.6103 46.9659 32.4363 47.7831 32.4648C48.6958 32.4582 49.5898 32.7323 50.3525 33.2526C51.1153 33.7729 51.7125 34.5159 52.069 35.3882L42.4109 39.546C42.1334 37.7915 42.5356 35.9943 43.5297 34.5465ZM54.1498 42.7219C51.8258 44.5062 50.4963 44.9326 48.3723 44.9326C47.5593 44.9746 46.7465 44.8473 45.9817 44.5582C45.2169 44.2691 44.5155 43.8241 43.9188 43.2493L58.0466 37.15C57.7903 35.0071 56.9503 32.9846 55.6253 31.3201C53.7715 29.0757 51.0259 27.8973 47.6805 27.8973C41.6002 27.8973 37.0171 32.5546 37.0171 38.6987C37.0225 45.0056 41.6164 49.4945 48.2912 49.4945C52.0312 49.4945 55.8577 47.654 57.6466 45.505L54.1498 42.7219Z" fill="#E51E25"/>
<path d="M36.4984 43.8831H23.938V21.9998H18.3334V49.1463H36.4984V43.8831Z" fill="#E51E25"/>
<path d="M135.814 32.8127C132.728 32.8127 130.485 35.2423 130.485 38.6987C130.485 41.998 132.858 44.5791 135.89 44.5791C138.922 44.5791 141.219 42.0878 141.219 38.6987C141.219 35.3994 138.846 32.8127 135.814 32.8127ZM135.814 49.4945C129.766 49.4945 125.005 44.8204 125.005 38.6987C125.005 32.577 129.772 27.8973 135.857 27.8973C141.943 27.8973 146.64 32.5714 146.64 38.6987C146.64 44.826 141.9 49.4945 135.814 49.4945Z" fill="#E51E25"/>
<path d="M93.2635 32.8127C90.172 32.8127 87.9345 35.2423 87.9345 38.6987C87.9345 41.998 90.3071 44.5791 93.3391 44.5791C96.3711 44.5791 98.6681 42.0878 98.6681 38.6987C98.6681 35.3994 96.2955 32.8127 93.2635 32.8127ZM93.2635 49.4945C87.2157 49.4945 82.4812 44.8204 82.4812 38.6987C82.4812 32.577 87.2481 27.8973 93.3337 27.8973C99.4194 27.8973 104.116 32.5714 104.116 38.6987C104.116 44.826 99.3491 49.4945 93.2635 49.4945Z" fill="#E51E25"/>
</g>
<defs>
<clipPath id="clip0_2169_1457">
<rect width="128.333" height="27.5" fill="white" transform="translate(18.3334 21.9998)"/>
</clipPath>
</defs>
</svg>
