<svg width="241" height="73" viewBox="0 0 241 73" fill="none" xmlns="http://www.w3.org/2000/svg">
<path d="M211.552 48.815C211.552 43.1169 211.613 37.6805 211.529 32.244C211.477 28.7691 209.575 26.56 206.585 26.1723C202.692 25.6492 199.735 27.1531 198.662 30.3758C198.353 31.4929 198.217 32.6506 198.259 33.8086C198.217 38.7687 198.259 43.7241 198.259 48.8243H190.95V7.63503H198.208V22.1743C201.45 19.699 204.66 18.4706 208.3 18.975C214.434 19.8204 217.906 23.2532 218.838 29.3483C218.975 30.5075 219.025 31.6752 218.988 32.8418C218.988 38.1148 218.988 43.3925 218.988 48.815H211.552Z" fill="black"/>
<path d="M187.97 24.5797L183.406 29.6519C176.556 25.1635 172.465 25.0047 169.148 28.9326C166.487 32.0852 166.697 37.2648 169.617 40.2493C173.046 43.7708 177.619 43.3692 183.205 38.9976C184.737 40.6229 186.283 42.2669 187.857 43.925C185.36 48.2545 178.378 50.7626 172.095 49.4595C165.634 48.1191 160.559 42.6265 159.941 36.27C159.243 29.1661 162.813 22.8796 169.064 20.2081C172.265 18.7977 175.839 18.4614 179.248 19.2498C182.658 20.0381 185.718 21.9085 187.97 24.5797Z" fill="black"/>
<path d="M122.068 48.8524H114.842V26.3638L110.982 26.0976V19.8811L114.664 19.6196V10.9371H121.885V19.5729L125.9 19.8625V26.0789L122.068 26.3358V48.8524Z" fill="black"/>
<path d="M29.0314 48.843H22.0031V7.68642H29.0314V48.843Z" fill="black"/>
<path d="M97.4403 51.0335C97.773 59.4404 90.6463 66.3247 81.725 66.3247C72.8037 66.3247 65.8879 59.5945 66.1877 51.0848H73.1833C74.0642 55.9702 76.7818 59.2629 82.1608 59.2069C86.5136 59.1555 89.1469 56.2831 90.3371 50.8887C92.155 50.8887 94.0105 50.8887 95.8707 50.8887C96.4048 50.9074 96.9343 50.9961 97.4403 51.0335Z" fill="black"/>
<path d="M107.645 48.8383H100.617V19.8811H107.645V48.8383Z" fill="black"/>
<path d="M108.882 11.5583C108.892 12.1991 108.77 12.8351 108.526 13.4277C108.281 14.0203 107.918 14.5571 107.459 15.0057C106.999 15.4542 106.454 15.8051 105.854 16.037C105.255 16.269 104.615 16.3771 103.972 16.3549C101.282 16.3222 99.3474 14.3232 99.338 11.5676C99.3146 8.65322 101.25 6.66358 104.075 6.66358C104.719 6.65094 105.358 6.76969 105.954 7.01253C106.55 7.25538 107.089 7.61718 107.54 8.07567C107.99 8.53416 108.341 9.07965 108.572 9.67857C108.803 10.2775 108.909 10.9172 108.882 11.5583Z" fill="black"/>
<path d="M150.921 21.4131C145.645 17.6766 137.685 18.097 132.61 22.2584C127.264 26.6487 125.441 34.6259 128.295 41.1413C131.284 47.9696 139.071 51.2904 147.206 49.254C150.579 48.4086 153.503 46.8534 155.504 44.6115L151.184 39.5066C142.825 44.845 136.462 44.009 135.122 37.3582H157.439C157.579 30.8008 156.314 25.2382 150.921 21.4131ZM134.798 31.2211C135.787 27.41 138.64 25.2195 142.417 25.2896C146.081 25.3596 148.724 27.4847 149.567 31.2211H134.798Z" fill="black"/>
<path d="M95.4865 26.4759C98.6914 24.8646 96.5267 22.151 97.2857 19.7363C95.9832 19.7363 95.0648 19.7831 94.1511 19.7363C90.7447 19.5402 87.3383 19.2693 83.9319 19.1105C82.4696 18.9844 80.9992 18.9844 79.5369 19.1105C72.6866 19.9278 67.0921 25.2008 66.2159 31.5387C65.1616 39.1564 68.6196 45.6577 75.2449 48.5021C81.7672 51.3044 89.9997 49.4362 94.1183 44.1071C98.415 38.5492 98.6399 32.6036 95.4865 26.4759ZM81.7063 42.6265C80.6144 42.629 79.5327 42.4167 78.5232 42.0019C77.5137 41.5871 76.5962 40.9779 75.8232 40.2091C75.0502 39.4404 74.437 38.5272 74.0186 37.5219C73.6001 36.5165 73.3848 35.4388 73.3848 34.3504C73.3878 33.2428 73.6104 32.1468 74.0397 31.1252C74.469 30.1036 75.0966 29.1767 75.8865 28.3977C76.6763 27.6186 77.6128 27.0028 78.6421 26.5857C79.6714 26.1685 80.7732 25.9582 81.8843 25.9668C82.9765 25.966 84.058 26.1821 85.0655 26.6025C86.0729 27.0229 86.9863 27.6391 87.7523 28.4152C88.5182 29.1914 89.1214 30.1118 89.5266 31.1228C89.9318 32.1338 90.1308 33.2151 90.1122 34.3037C90.1262 39.1143 86.5652 42.6265 81.7063 42.6265Z" fill="black"/>
<path d="M47.6189 18.8069C38.7726 18.905 31.9926 25.5978 31.9692 34.2663C31.9458 43.0936 38.8007 49.8752 47.7033 49.8705C56.6058 49.8658 63.4327 43.1263 63.4327 34.2897C63.4327 25.453 56.4746 18.7088 47.6189 18.8069ZM47.708 42.6265C42.9193 42.6265 39.3396 38.9789 39.4145 34.1589C39.4213 33.0705 39.6438 31.9942 40.0692 30.9919C40.4947 29.9895 41.1148 29.0809 41.8938 28.3183C42.6728 27.5557 43.5954 26.9541 44.6085 26.5481C45.6216 26.1422 46.7052 25.9398 47.797 25.9528C50.0036 25.9757 52.1139 26.8575 53.6774 28.4098C55.2408 29.9622 56.1337 32.0622 56.1654 34.2616C56.1827 35.3704 55.9753 36.4713 55.5556 37.4983C55.1358 38.5253 54.5124 39.4573 53.7227 40.2383C52.933 41.0194 51.9932 41.6335 50.9597 42.0439C49.9262 42.4543 48.8202 42.6524 47.708 42.6265Z" fill="black"/>
</svg>
