<svg xmlns="http://www.w3.org/2000/svg" viewBox="0 0 1278.33 272.8"><g id="Layer_2" data-name="Layer 2"><g id="Layer_1-2" data-name="Layer 1"><path d="M129.58,0c0,41.73,0,83.47.17,125.2,0,4.15-1.7,4.45-5,4.44q-59.88-.12-119.77,0c-1.33,0-2.65.08-4,.12-1.49-.93-.84-2.41-.84-3.63Q.08,64.73.12,3.39C.12,2.24-.12,1.05.61,0Z" fill="#f05225"/><path d="M272.54,0c.07,5.66.2,11.31.21,17,0,35.8-.06,71.6.1,107.41,0,4.12-1.05,5.31-5.25,5.29q-59.48-.24-119,0c-4.24,0-5.21-1.21-5.19-5.29.15-41.46.1-82.93.11-124.39Z" fill="#7fbb42"/><path d="M.49,143.82c1.23-1.29,2.83-.69,4.24-.69q60.14-.06,120.26-.08c3,0,4.8.07,4.79,4.07-.19,41.89-.17,83.79-.2,125.68H.61c-.8-1.21-.48-2.58-.49-3.88q0-60.84,0-121.67A7.29,7.29,0,0,1,.49,143.82Z" fill="#33a0da"/><path d="M143.57,272.8c0-41.6.05-83.2-.12-124.8,0-4,1.15-4.92,5-4.91,39.79.14,79.58.09,119.37.07,2.76,0,5.07-.4,5.05,3.86-.15,41.44-.1,82.87-.12,124.31a10.62,10.62,0,0,1-.21,1.47Z" fill="#fdb815"/><path d="M443.39,176.77c6.74-16.42,12.92-31.46,19.07-46.5,9.7-23.7,19.46-47.38,29-71.14,1.35-3.37,3.12-4.47,6.63-4.39,9.66.21,19.32.19,29,0,3.35-.06,4.66.82,4.66,4.43q-.15,77.17,0,154.35c0,3.49-1.07,4.66-4.56,4.52-6.15-.23-12.33-.32-18.48,0-4.25.24-5.26-1.27-5.24-5.35.14-38.63.08-77.26.08-115.88V91c-2,1-2.05,2.79-2.59,4.17q-23.24,58.65-46.29,117.39c-1.55,4-3.34,5.63-7.82,5.53-13.33-.3-13.32-.09-18.23-12.28Q406.47,151,384.34,96.21a11,11,0,0,0-2.86-4.33c-.09,1.69-.24,3.38-.24,5.07,0,38.3-.12,76.59.12,114.88,0,5.24-1.52,6.7-6.46,6.25a74.93,74.93,0,0,0-13.48,0c-4.76.42-6.19-1.06-6.17-6,.21-38.63.12-77.26.12-115.88,0-12.32.11-24.65-.07-37-.05-3.55,1.15-4.56,4.58-4.5,10.49.18,21,.24,31.48,0,3.68-.09,5.15,1.31,6.4,4.56Q419,114.69,440.57,170C441.28,171.83,442.08,173.64,443.39,176.77Z" fill="#747474"/><path d="M1250.19,66c0,10.15.16,20.3,0,30.45,0,3.25,1,4.44,4.28,4.35,6.49-.18,13,.08,19.48-.1,3.17-.09,4.49.86,4.35,4.21-.24,6-.12,12-.14,18-7.83,0-15.66.17-23.48,0-3.07-.05-4.48.62-4.44,4.1.16,17.64-.13,35.29.18,52.93.27,15.31,9.15,21.28,23.61,16.08,3.51-1.26,4.31-.54,4.15,2.94-.2,4.65-.16,9.33,0,14,.09,2.69-.63,4.34-3.48,5.07-10.67,2.74-21.39,3.51-32,.25-12.61-3.86-17.85-13.65-19.43-25.87-1.6-12.44-.56-24.94-.48-37.41.06-9.15.09-18.31.36-27.46.1-3.36-1.24-4.31-4.39-4.27-10.82.12-21.65.19-32.47,0-4-.08-5,1.36-5,5.19.15,28,0,55.94.19,83.9,0,4.6-1.25,6.12-5.83,5.79a110.69,110.69,0,0,0-16,0c-4.72.35-6.25-1-6.21-6,.24-27.47.12-54.93.11-82.4,0-6.41,0-6.41-6.61-6.42-12.82,0-12.82,0-12.82-12.69,0-9.69,0-9.69,9.71-9.69s9.75,0,9.72-9.72c0-8.86.2-17.67,4.35-25.81,7.09-13.91,18.46-21.5,34-22.46,5-.31,10,0,15,.13,3.63.12,5.68,1.57,5.41,5.86-.39,6.1-.1,12.23-.1,18.65-4.55-.86-8.37-2.64-12.62-2.58-9.63.14-15.54,5-17.48,14.42-1.22,6-.57,12-.8,17.92-.08,2.32.89,3.35,3.21,3.34q17.75,0,35.47,0c2.9,0,3.09-1.82,3.08-4,0-6.32.06-12.65,0-19,0-2.45.49-4,3.18-4.75C1234.27,70.74,1242.22,68.32,1250.19,66Z" fill="#747474"/><path d="M920.39,187.45c9.24,5.83,18.06,9.5,27.77,10.92a36.13,36.13,0,0,0,14.36-.86c3.87-1,7-3.1,7.85-7.45a12.9,12.9,0,0,0-4.88-13.32c-3.8-3-8.26-4.94-12.69-6.88-5.18-2.27-10.42-4.37-15.27-7.36-22.65-14-22.49-44.85.46-58.41,12.49-7.38,26.11-8.54,40.09-5.7,14.25,2.89,14.22,3,14.22,17.41,0,2.83-.14,5.67,0,8.49.22,3.57-.94,4-3.91,2.3-8.06-4.71-16.62-7.47-26.15-6.74-7.61.59-11.9,3.56-13.33,9.73s1.15,10.84,7.8,14.54c8,4.45,16.92,7,24.81,11.68,7.39,4.42,13.21,10,15.88,18.47,5.4,17.15-2.56,34.41-19.86,41.74-18.18,7.71-36.47,5.38-54.6-.6-1.48-.49-2.63-1.21-2.61-3.13C920.42,204.34,920.39,196.4,920.39,187.45Z" fill="#747474"/><path d="M696.46,130.67c-6.51-4.21-12.35-7.31-19-8.66-24-4.9-42.84,10.62-43.92,36.28-.82,19.52,8.32,34,24.36,38.42,12.15,3.35,23.35.79,33.91-5.66,4.76-2.9,4.83-2.82,4.85,2.78,0,5.33,0,10.65,0,16,0,2.13-.41,3.66-2.51,4.89-28.71,16.7-71.55,2.91-84.41-27.26-11.21-26.29-2.78-61.92,19.49-77.69,19.87-14.06,41.8-14.58,64.26-6.48a3.8,3.8,0,0,1,2.93,4C696.39,114.77,696.46,122.24,696.46,130.67Z" fill="#747474"/><path d="M785.66,127.35c-5.14-1.6-9.65-3.21-14.52-3.47-9.57-.51-16.25,4-21,11.79a32.45,32.45,0,0,0-4.72,16.62c-.23,20-.4,39.94-.28,59.92,0,4.5-1.09,6.22-5.81,5.88a133.46,133.46,0,0,0-17,0c-4,.21-5-1.11-5-5,.16-28.8.09-57.6.09-86.41,0-7.32.09-14.65,0-22,0-2.73.75-3.87,3.66-3.8q10,.25,20,0c3-.08,4.21.88,4.07,4a55.52,55.52,0,0,0,.83,13.06c1-1.63,2-3.27,3-4.87,7.07-11,21.25-16.62,33.46-13.33,1.7.45,3.3.73,3.3,3Z" fill="#747474"/><path d="M585.8,159.37c0,17.81-.12,35.62.09,53.42.05,4.22-1.31,5.49-5.4,5.28-6-.31-12-.19-18,0-2.9.08-4.12-.7-4.11-3.88q.14-54.68,0-109.35c0-3.07,1-4,4-4,6.32.18,12.66.23,19,0,3.58-.13,4.51,1.24,4.48,4.62C585.74,123.42,585.8,141.39,585.8,159.37Z" fill="#747474"/><path d="M588.79,67.13c0,9-7.3,15.88-16.85,15.8-9-.07-16.38-7.21-16.47-15.92-.09-8.53,7.46-15.76,16.52-15.82C581.51,51.13,588.78,58,588.79,67.13Z" fill="#747474"/><path d="M906.45,145.9c-2.89-22.32-17.9-40.12-39.1-45.52A77.34,77.34,0,0,0,837.62,99c-14.14,1.93-26.59,7.38-35.85,18.66-16.49,20.11-19.15,55.24-5.85,77.61,11.44,19.25,29.54,25.64,50.75,25.75,27.88-.08,47.78-12.79,56.32-36.3C907.57,172.14,908.17,159.17,906.45,145.9Zm-29.71,32.9c-3.75,10.58-10.86,17.55-22.24,18.93-13.15,1.6-25.71-.57-32.51-13.2-8.73-16.23-8.65-33.39.5-49.56,6.5-11.49,19-16.19,32.26-13.76,12.65,2.32,20.76,10.82,23.54,24.59a58.15,58.15,0,0,1,1.09,13.87A50.08,50.08,0,0,1,876.74,178.8Z" fill="#747474"/><path d="M1130.53,160.32c0-6.82-.12-12.15-1.27-17.39-4.68-21.35-16.29-36.55-38.14-42.41a75.61,75.61,0,0,0-28.24-1.67c-22.24,2.48-38.28,13.34-46.9,34.34-4.73,11.52-5.33,23.6-4.65,35.82,1.35,24.05,16.7,43.59,38.85,49.68A78,78,0,0,0,1077,220.8c21.14-1.64,37.4-11.15,47-30.53A63.1,63.1,0,0,0,1130.53,160.32ZM1100.68,177c-4,14.26-13.72,21.14-28.81,21.16-19.1,0-30.1-10.73-32.15-32.47-1.24-13.23.68-26,10.46-36.19,15.33-15.94,43.1-9.77,50,11.17A61.16,61.16,0,0,1,1100.68,177Z" fill="#747474"/></g></g></svg>