<svg width="165" height="74" viewBox="0 0 165 74" fill="none" xmlns="http://www.w3.org/2000/svg">
<g clip-path="url(#clip0_2169_1436)">
<path fill-rule="evenodd" clip-rule="evenodd" d="M141.703 48.2058L148.219 30.4C144.948 30.4425 141.686 30.7664 138.472 31.3682L132.307 48.2058H141.703ZM140.588 25.5893L139.335 29.0385C142.55 28.4379 145.811 28.1139 149.082 28.0703L150.335 24.6211C147.064 24.6635 143.802 24.9875 140.588 25.5893Z" fill="black"/>
<path fill-rule="evenodd" clip-rule="evenodd" d="M106.594 43.9776C109.576 44.5166 112.601 44.7875 115.631 44.787C117.663 44.787 121.047 44.545 121.345 41.9581C121.467 40.9445 120.36 40.2486 118.58 39.2804C116.556 38.1685 114.99 37.586 113.233 36.4136C112.394 35.9238 111.747 35.1681 111.397 34.269C111.046 33.3699 111.012 32.3799 111.3 31.4592C113.08 25.6273 121.697 24.6515 126.784 24.6515C130.219 24.6539 133.647 24.978 137.02 25.6197L135.821 28.8496C132.765 28.2974 121.59 26.414 121.07 30.8692C120.948 31.8903 121.987 32.5484 123.759 33.5166C125.791 34.6209 127.426 35.2487 129.183 36.4136C130.021 36.9034 130.668 37.6591 131.019 38.5582C131.369 39.4573 131.403 40.4474 131.115 41.3681C129.328 47.1999 120.719 48.1757 115.631 48.1757C112.199 48.1751 108.774 47.8509 105.403 47.2075L106.594 43.9474V43.9776Z" fill="black"/>
<path fill-rule="evenodd" clip-rule="evenodd" d="M92.3632 47.418L97.802 32.5622C99.9409 26.7228 89.8041 29.0525 87.3979 35.6257L83.0437 47.418H73.6861L79.125 32.5622C81.2638 26.7228 71.1194 29.0525 68.7131 35.6257L64.3972 47.418H55.0013L63.6409 23.8333C66.6277 23.8333 68.2243 24.5141 69.6069 25.8378C70.0911 26.3335 70.4292 26.9507 70.5847 27.6229C71.976 26.7539 73.4344 25.9951 74.9465 25.3537C77.283 24.386 79.7856 23.8724 82.318 23.8409C85.3125 23.8409 86.9013 24.5217 88.284 25.8454C88.7704 26.3394 89.1089 26.9573 89.2618 27.6305C90.6564 26.7626 92.1173 26.0039 93.6312 25.3613C95.9672 24.392 98.4701 23.8783 101.003 23.8485C103.99 23.8485 105.586 24.5292 106.969 25.8529C108.351 27.1766 108.29 29.5896 107.801 30.9208L101.759 47.418H92.3632Z" fill="black"/>
<path fill-rule="evenodd" clip-rule="evenodd" d="M13.3693 21.8675C18.6248 18.6225 25.0568 15.6952 31.1679 14.6665H31.3512H31.5345C37.6457 15.665 44.1005 18.5923 49.3561 21.8372L49.8908 22.1701V22.7903C49.9366 30.6569 48.6533 39.0454 45.0095 46.1178C42.1832 51.6774 37.7984 56.4654 31.7484 58.5379L31.3818 58.6665L31.0075 58.5379C24.9651 56.4654 20.5727 51.6774 17.7234 46.1481C14.0797 39.0757 12.7887 30.6872 12.8345 22.8206V22.2306L13.3693 21.8675Z" fill="#8A8A8B"/>
<path fill-rule="evenodd" clip-rule="evenodd" d="M13.9806 22.8279C19.4729 19.4317 25.775 16.7238 31.3743 15.8161C36.9736 16.7238 43.2757 19.4317 48.7757 22.8279C48.875 41.0195 41.7785 53.8934 31.3743 57.4637C20.9701 53.8934 13.8736 41.0195 13.9806 22.8279Z" fill="#ED1C24"/>
<path fill-rule="evenodd" clip-rule="evenodd" d="M36.4618 29.8858C34.1701 32.5105 30.5263 32.9114 28.0132 33.0022C27.7305 33.0022 27.1576 33.0627 27.0125 33.2669C26.9798 33.3382 26.9742 33.4187 26.9966 33.4937C27.0191 33.5688 27.0681 33.6333 27.1347 33.6754C29.9763 35.6572 33.6812 34.2049 35.6291 33.2518C33.3757 35.2563 29.5868 35.6042 26.3479 34.4318C25.9354 34.2957 25.6757 34.2503 25.5382 34.394C25.4852 34.4681 25.4568 34.5566 25.4568 34.6474C25.4568 34.7382 25.4852 34.8267 25.5382 34.9008C26.4472 36.58 27.1041 37.8734 29.4187 38.5996C26.7298 38.4483 25.0493 35.9219 24.652 34.5755C24.652 36.8447 26.6 38.3575 27.4173 39.2879C26.3555 39.3257 25.309 39.4089 24.8583 40.1956C24.5375 40.6948 24.5451 41.421 24.0944 42.0866C22.8493 39.8174 21.8638 36.58 22.7958 33.7662C23.1382 32.5669 23.7543 31.4616 24.5967 30.5357C25.4391 29.6097 26.4852 28.8879 27.6541 28.426C26.9231 29.2157 26.2516 30.0576 25.6451 30.9448C25.1486 31.8676 25.7597 32.1929 26.409 31.0053C27.3715 33.3123 34.2847 31.9357 36.0951 29.7345L36.752 29.4622L36.4312 29.8783L36.4618 29.8858ZM32.0923 49.8019C32.1379 49.7415 32.2014 49.6966 32.274 49.6736C32.3466 49.6506 32.4246 49.6505 32.4972 49.6733C32.5634 49.6883 32.6249 49.7191 32.6762 49.7633C32.7275 49.8074 32.767 49.8634 32.7912 49.9262C32.8154 49.9891 32.8235 50.0569 32.8149 50.1236C32.8062 50.1904 32.7811 50.2539 32.7416 50.3087C32.5277 50.5962 32.1763 50.8004 31.9777 51.0651C31.8858 51.1869 31.8136 51.3222 31.7638 51.466C31.6991 51.177 31.6976 50.8775 31.7596 50.5879C31.8215 50.2982 31.9454 50.0251 32.1229 49.7868L32.0923 49.8019ZM28.8763 48.8035C28.967 48.7371 29.0768 48.7013 29.1895 48.7013C29.3023 48.7013 29.4121 48.7371 29.5027 48.8035C29.5762 48.8888 29.6249 48.9922 29.6438 49.1028C29.6626 49.2133 29.6508 49.3268 29.6097 49.4313C29.4266 49.6134 29.2182 49.7687 28.9909 49.8927C28.6233 50.0735 28.3177 50.3576 28.1125 50.7096C28.1139 50.2806 28.2022 49.8562 28.3722 49.4615C28.4754 49.2022 28.6437 48.9731 28.8611 48.7959L28.8763 48.8035ZM36.5152 48.4101C36.5665 48.386 36.6226 48.3734 36.6795 48.3734C36.7363 48.3734 36.7924 48.386 36.8437 48.4101C36.8955 48.4442 36.9393 48.4888 36.9723 48.5409C37.0052 48.5931 37.0265 48.6517 37.0347 48.7127C37.0642 48.9897 37.1204 49.2633 37.2027 49.5296C37.2496 49.64 37.3059 49.7463 37.3708 49.8473C37.136 49.7656 36.9222 49.6339 36.7444 49.4615C36.5489 49.2848 36.4085 49.0565 36.3395 48.8035C36.3238 48.7264 36.3348 48.6463 36.3709 48.5763C36.4069 48.5062 36.4659 48.4503 36.5382 48.4177L36.5152 48.4101ZM26.4625 46.8973C26.5519 46.863 26.6495 46.8554 26.7432 46.8756C26.837 46.8958 26.9226 46.9428 26.9895 47.0108C27.1347 47.1545 27.0659 47.3512 27.0583 47.5176C27.0451 47.5773 27.0163 47.6325 26.9747 47.6776C26.9331 47.7227 26.8803 47.7563 26.8215 47.7748C26.493 47.9336 26.1187 48.0698 25.7902 48.2362C25.5817 48.3353 25.4008 48.4833 25.2632 48.6673C25.3139 48.3704 25.4146 48.0841 25.5611 47.8202C25.7498 47.422 26.0669 47.0974 26.4625 46.8973ZM40.1132 44.6281C40.1132 44.492 40.2201 44.371 40.3652 44.3029C40.6201 44.3281 40.8658 44.4109 41.0833 44.5449C41.2188 44.6017 41.364 44.6326 41.5111 44.6357C41.236 44.8138 40.9154 44.9109 40.5868 44.9156C40.3805 44.9156 40.1437 44.8021 40.1132 44.6281ZM24.4916 43.4103C24.5757 43.3498 24.6979 43.4103 24.7972 43.4103C24.8988 43.4358 24.9887 43.4945 25.0524 43.5768C25.1162 43.6592 25.1501 43.7604 25.1486 43.8642C25.1486 44.0684 25.1486 44.318 24.9194 44.4466C24.4499 44.6512 23.9933 44.8836 23.552 45.1425C23.4165 45.2387 23.2978 45.3562 23.2007 45.4904C23.2762 44.9025 23.5112 44.3457 23.8805 43.8793C24.0496 43.6832 24.2576 43.5236 24.4916 43.4103ZM30.152 41.2092C30.4782 41.0923 30.8213 41.0285 31.168 41.0201C30.8771 41.0845 30.6116 41.2317 30.4041 41.4437C30.3354 41.542 30.2666 41.6782 30.4041 41.7689C30.5416 41.8597 30.7097 41.8143 30.8395 41.8673C30.9694 41.9202 30.9312 42.1017 30.9083 42.2152C30.8004 42.5854 30.6271 42.9336 30.3965 43.2439C30.3677 43.2769 30.346 43.3154 30.3328 43.3571C30.3197 43.3987 30.3154 43.4426 30.3201 43.486C30.4194 43.486 30.4958 43.4179 30.5722 43.3801C30.8863 43.1883 31.1739 42.9569 31.4277 42.6917C31.527 42.5707 31.6798 42.4648 31.6951 42.306C31.7104 42.1471 31.4965 42.1471 31.4812 42.0412C31.6153 41.8548 31.8092 41.7189 32.0312 41.6555C32.2812 41.5404 32.5603 41.5019 32.8325 41.5451C33.1047 41.5882 33.3577 41.7109 33.559 41.8975C33.3118 41.8047 33.0559 41.7363 32.7951 41.6933C32.6576 41.6933 32.5048 41.7462 32.4743 41.8521C32.4437 41.958 32.4743 42.1396 32.4284 42.2833C32.3587 42.5514 32.2292 42.8006 32.0494 43.0127C31.8696 43.2248 31.6442 43.3942 31.3895 43.5087C31.1907 43.5742 31.0028 43.6685 30.8319 43.7885C30.7801 43.8299 30.7377 43.8815 30.7074 43.9402C30.6772 43.9988 30.6597 44.0631 30.6562 44.1289C30.7826 44.166 30.914 44.1839 31.0458 44.1819C31.3371 44.223 31.634 44.2023 31.9166 44.1213C32.1687 44.023 32.2757 43.781 32.5354 43.6978C32.864 43.5814 33.2219 43.5738 33.5552 43.6761C33.8886 43.7784 34.1794 43.9851 34.384 44.2651C34.1701 44.1667 33.9944 44.023 33.7652 43.9398C33.6478 43.8994 33.5225 43.8865 33.3992 43.9023C33.2759 43.9181 33.158 43.962 33.0548 44.0306C32.8683 44.1724 32.7124 44.3499 32.5965 44.5525C32.5788 44.5929 32.5515 44.6285 32.5169 44.6561C32.4823 44.6838 32.4415 44.7027 32.3979 44.7113C32.2145 44.7113 32.0541 44.5903 31.8708 44.6357C31.6875 44.6811 31.3895 44.8248 31.1069 44.8853C30.9281 44.9231 30.7433 44.9231 30.5645 44.8853C30.2613 44.8108 29.952 44.7627 29.6402 44.7416C29.5673 44.7299 29.4926 44.734 29.4214 44.7536C29.3502 44.7731 29.2841 44.8078 29.2277 44.8551C29.1329 44.9981 29.0898 45.1687 29.1055 45.3391C28.9768 44.9449 28.8848 44.5398 28.8305 44.1289C28.7424 43.6295 28.7245 43.1204 28.777 42.6161C28.9153 42.8229 28.992 43.0641 28.9986 43.312C29.0043 43.3766 29.0313 43.4375 29.0755 43.4854C29.1197 43.5332 29.1785 43.5653 29.243 43.5767C29.3363 43.5659 29.4259 43.5344 29.5052 43.4847C29.5846 43.4349 29.6516 43.3682 29.7013 43.2893C29.9071 43.0605 30.0189 42.7636 30.0145 42.4573C30.0145 42.3287 29.8083 42.3211 29.7319 42.2228C29.6667 42.1494 29.6247 42.0586 29.6112 41.9618C29.5976 41.865 29.613 41.7664 29.6555 41.6782C29.7073 41.5782 29.7785 41.4893 29.865 41.4167C29.9515 41.344 30.0517 41.2889 30.1597 41.2546L30.152 41.2092ZM41.9465 40.5435C41.9465 40.4377 42.1069 40.4074 42.2215 40.415C42.3361 40.4225 42.6493 40.415 42.8555 40.415C42.6879 40.5936 42.4695 40.7176 42.2291 40.7705C42.0611 40.7705 41.9083 40.6797 41.9465 40.5511V40.5435ZM42.1069 37.9491C42.2627 37.8908 42.4134 37.8199 42.5576 37.7373C42.5315 37.8361 42.4837 37.9279 42.4177 38.0063C42.3517 38.0848 42.269 38.1479 42.1757 38.1911C42.146 38.193 42.1166 38.1847 42.0924 38.1677C42.0682 38.1507 42.0506 38.1259 42.0425 38.0976C42.0345 38.0693 42.0365 38.0391 42.0482 38.0121C42.0599 37.9851 42.0806 37.9628 42.1069 37.9491ZM34.5291 35.2865C34.5726 35.6949 34.731 36.0829 34.9863 36.4065C35.2415 36.7301 35.5833 36.9763 35.9729 37.117C37.0037 37.2986 38.0587 37.2986 39.0895 37.117C39.8916 37.117 40.6173 36.9431 41.2284 37.3591C41.4852 37.5533 41.6812 37.8156 41.7937 38.1155C41.9301 38.3865 42.0525 38.6642 42.1604 38.9475C42.1962 39.0741 42.2052 39.2066 42.1868 39.3368C42.1684 39.467 42.123 39.592 42.0534 39.7039C41.8351 40.015 41.6938 40.3726 41.6409 40.7478C41.6027 41.1109 41.5264 41.4588 41.4576 41.8143C41.3916 42.1878 41.2706 42.5497 41.0986 42.8884C40.9229 43.1985 40.6097 43.433 40.4034 43.728C40.0864 44.1934 39.8418 44.7034 39.6777 45.2408C39.5326 45.6493 39.4791 46.0804 39.3569 46.4964C39.3111 46.6913 39.2241 46.8742 39.1017 47.0333C38.9792 47.1924 38.8241 47.3239 38.6465 47.4193C38.0084 47.6613 37.3583 47.8709 36.6986 48.0471C36.1847 48.2967 35.711 48.6205 35.293 49.0077C34.9647 49.3317 34.5523 49.5594 34.1013 49.6658C33.1388 49.8095 32.8868 49.0531 31.1527 49.6658C31.0491 49.7153 30.9355 49.7411 30.8204 49.7411C30.7054 49.7411 30.5918 49.7153 30.4882 49.6658C30.0757 49.4691 30.0298 48.9094 29.5638 48.6598C29.07 48.4897 28.5569 48.3804 28.0361 48.3345C27.9255 48.3193 27.8196 48.2802 27.7259 48.2201C27.6322 48.16 27.5529 48.0803 27.4937 47.9866C27.3486 47.684 27.3409 47.3587 27.2111 47.0562C26.875 46.3754 25.7673 46.1561 25.4541 45.5434C25.1409 44.9307 25.5687 44.5449 25.5687 44.0306C25.5687 43.3271 25.0569 42.9792 24.125 42.9489C24.5682 42.3026 24.8676 41.5703 25.0034 40.8007C25.0841 40.503 25.258 40.2382 25.5 40.0443C25.8128 39.8611 26.1495 39.7211 26.5007 39.6283C26.8929 39.5342 27.3043 39.5552 27.6847 39.6888C28.5708 40.1653 28.3722 41.4361 27.9062 41.958C27.2645 42.669 25.6757 42.5253 25.9507 41.4134C26.2791 41.6857 26.5923 42.1093 27.0507 41.6101C27.0906 41.5612 27.1098 41.4988 27.1041 41.4361C27.0708 41.3301 27.0116 41.2338 26.9316 41.1559C26.8516 41.0781 26.7534 41.021 26.6458 40.9898C26.5199 40.9299 26.3772 40.9139 26.2409 40.9444C26.0391 40.9995 25.8509 41.0951 25.688 41.2252C25.525 41.3554 25.3908 41.5172 25.2937 41.7008C24.9347 42.4043 25.7138 42.964 26.6076 42.8279C27.2692 42.6916 27.8768 42.3684 28.3569 41.8975C28.318 42.7202 28.3436 43.5446 28.4333 44.3634C28.5431 45.0566 28.7568 45.7296 29.0673 46.3603C29.3848 46.9308 29.8924 47.3746 30.5034 47.6159C31.2156 47.8546 31.9688 47.9497 32.7187 47.8958C34.1939 47.8184 35.6383 47.448 36.9659 46.8066C38.6388 45.9291 38.8833 45.2257 39.7007 43.8566C40.0688 43.1737 40.3879 42.466 40.6555 41.7387C40.935 41.0477 41.0851 40.312 41.0986 39.5678C41.1201 39.1147 40.9764 38.6691 40.6937 38.3122C39.9298 37.3969 38.402 37.7902 36.9583 37.7449C36.8838 37.8459 36.8436 37.9677 36.8436 38.0928C36.8436 38.2179 36.8838 38.3397 36.9583 38.4407C37.3097 38.819 38.1652 38.7584 38.7382 38.8038C36.2708 39.8023 34.0632 38.7131 33.4444 36.7918C33.9638 37.4272 34.7965 38.7282 36.0493 38.3424C36.5076 38.2063 36.3013 37.8886 36.1562 37.639C36.118 37.5482 35.9576 37.5482 35.8659 37.5179C35.3914 37.395 34.985 37.0918 34.7348 36.6741C34.4845 36.2564 34.4106 35.7578 34.5291 35.2865ZM26.5847 34.8705C26.7757 35.0142 26.8368 35.2109 27.0201 35.3546C28.7694 36.6708 30.3125 36.6632 32.543 36.7388C30.5645 37.2154 28.0513 36.9204 26.6382 35.6042C26.4584 35.442 26.3085 35.25 26.1951 35.0369C26.0882 34.7344 26.3632 34.6965 26.5847 34.8705ZM34.85 34.5074C36.6375 34.4167 38.4632 35.0823 39.0361 36.7767C38.5726 36.4708 38.017 36.3319 37.4625 36.3833C37.3632 36.3833 37.2715 36.459 37.2562 36.5422C37.2409 36.6254 37.3097 36.8145 37.3708 36.9582C36.9716 37.0369 36.558 36.9995 36.1798 36.8505C35.8016 36.7015 35.475 36.4473 35.2395 36.1186C35.4547 36.2426 35.686 36.3368 35.927 36.3985C36.1513 36.4371 36.3818 36.4201 36.5978 36.3488C36.8138 36.2775 37.0085 36.1542 37.1645 35.99C37.3402 35.8009 37.2333 35.5589 37.027 35.4151C36.3521 34.9996 35.6183 34.686 34.85 34.4848V34.5074ZM36.6909 31.3079C36.9277 31.1415 37.1263 30.9448 37.3479 30.7633C36.3472 32.2761 33.918 33.4636 32.0007 33.7889C31.0305 33.978 28.9451 34.2276 28.0361 33.751C27.9368 33.6981 27.8375 33.5846 27.9291 33.4939C28.1027 33.4125 28.2967 33.3836 28.4868 33.4107C28.8611 33.4107 29.2507 33.4107 29.6402 33.4107C30.6216 33.3973 31.6001 33.3037 32.5659 33.1308C34.0599 32.832 35.4686 32.2095 36.6909 31.3079ZM18.6326 25.8466C18.9111 25.7913 19.2003 25.8257 19.4576 25.945C19.7269 26.0833 19.9498 26.2962 20.0993 26.5576C20.1429 26.6095 20.1738 26.6705 20.1897 26.7361C20.2056 26.8017 20.206 26.8701 20.1909 26.9358L19.9312 26.9888C19.8548 27.0569 19.8777 27.1552 19.8854 27.2384C19.9602 27.6657 20.1074 28.0775 20.3208 28.4562C20.3543 28.5144 20.4014 28.5637 20.4583 28.5999C20.4494 28.1394 20.4982 27.6795 20.6034 27.2308C20.6416 27.1628 20.6798 27.0796 20.7791 27.0644C20.8784 27.0493 21.0694 27.2006 21.2298 27.1703C21.3902 27.1401 21.352 26.9585 21.3368 26.8526C21.2986 26.5728 21.0159 26.3837 20.8402 26.1568C21.2453 26.3724 21.5773 26.7012 21.7951 27.1023C21.8525 27.2172 21.8671 27.3484 21.8363 27.473C21.8056 27.5975 21.7315 27.7073 21.627 27.783C21.5053 27.8477 21.3632 27.8639 21.2298 27.8284C21.1152 27.9622 21.0386 28.1238 21.0077 28.2966C20.9769 28.4693 20.9929 28.6471 21.0541 28.8117C21.0541 28.8949 21.0923 29.0387 21.2451 29.0311C21.5171 28.9295 21.774 28.7921 22.009 28.6226C21.3977 29.2196 20.8825 29.9058 20.4812 30.6574C20.5117 30.4695 20.5117 30.2779 20.4812 30.0901C20.4564 30.0355 20.4205 29.9865 20.3758 29.9462C20.3312 29.9059 20.2786 29.875 20.2215 29.8556C19.9312 29.7119 19.5875 29.6362 19.2895 29.5001C19.0189 29.3329 18.7892 29.1081 18.6173 28.842C18.4951 28.6907 18.2507 28.7739 18.0979 28.6529C18.0626 28.5065 18.0421 28.357 18.0368 28.2066C17.9909 27.9721 17.9757 27.6696 17.7159 27.5183C17.427 27.387 17.1078 27.3348 16.7916 27.367C17.0302 27.2573 17.2933 27.2104 17.5555 27.2308C17.9409 27.2848 18.2922 27.479 18.5409 27.7755C18.7013 27.9646 18.6708 28.2066 18.8236 28.3957C18.9595 28.5237 19.114 28.6307 19.2819 28.7134C19.4559 28.8321 19.6499 28.9192 19.8548 28.9706C19.8851 28.8593 19.887 28.7422 19.8604 28.63C19.8337 28.5178 19.7793 28.4139 19.702 28.3276C19.4401 28.0366 19.2771 27.6715 19.2361 27.2838C19.185 27.0253 19.2284 26.7572 19.3583 26.5274C19.4194 26.4064 19.534 26.2702 19.4347 26.1416C19.3354 26.013 18.9076 25.9147 18.625 25.8391L18.6326 25.8466ZM29.6861 21.6335C30.45 22.1478 31.527 22.7832 32.3979 23.2219C32.2069 23.3732 31.9854 23.6001 31.7257 23.6001C30.9072 23.102 30.2106 22.4303 29.6861 21.6335ZM30.8548 19.9089C31.9561 21.3714 33.3973 22.5493 35.0562 23.3429C35.5277 23.594 36.0494 23.7386 36.584 23.7665C36.8972 23.7665 37.1951 23.585 37.5007 23.585C37.8569 23.5934 38.2026 23.7066 38.4937 23.9102C38.5315 23.9317 38.5641 23.9611 38.5892 23.9964C38.6143 24.0317 38.6312 24.072 38.6388 24.1145C38.6922 24.4951 38.8691 24.8482 39.143 25.1205C39.2561 25.1893 39.3823 25.2343 39.5138 25.2525C39.6452 25.2707 39.7791 25.2618 39.9069 25.2264C39.924 25.3371 39.9726 25.4407 40.047 25.5251C40.1214 25.6095 40.2186 25.6712 40.327 25.7029C40.5715 25.7483 40.7701 25.5062 41.0298 25.5743C41.1368 25.7105 41.1979 25.8466 41.3125 25.9828C41.427 26.1189 41.5798 26.1038 41.702 26.187C42.114 26.4382 42.4391 26.8075 42.634 27.246C42.3792 26.9148 42.0424 26.6542 41.6562 26.4896C41.6562 27.0871 41.6562 27.9343 41.2132 28.252C41.2455 27.8697 41.1659 27.4863 40.984 27.1476C40.6463 27.4654 40.242 27.7056 39.8 27.8511C39.9833 27.6317 40.3347 27.3897 40.2201 27.0947C40.1084 27.0227 39.9821 26.9758 39.8501 26.9575C39.7181 26.9392 39.5836 26.9499 39.4562 26.9888C39.0703 27.0879 38.714 27.2772 38.4173 27.541C38.3498 27.3365 38.2681 27.1368 38.1729 26.9434C37.959 26.9434 37.1722 27.2384 37.409 27.5864C37.7527 28.0099 38.3027 27.8435 38.6312 27.904C38.8381 27.983 39.0091 28.1335 39.1125 28.3276C39.1125 28.1688 39.1125 28.0099 39.1736 27.8511C39.5114 28.2606 39.8203 28.6928 40.0979 29.1445C40.4951 28.9706 40.5715 28.789 40.625 28.2898C40.7599 28.5186 40.8237 28.7817 40.8083 29.0462C40.9181 28.9618 41.0027 28.8494 41.0527 28.721C41.1742 29.1186 41.1403 29.547 40.9577 29.921C40.7752 30.2951 40.4574 30.5876 40.0673 30.7406C40.2507 30.2867 40.3194 29.8934 39.7007 29.8934C39.1866 29.9374 38.6762 30.0157 38.1729 30.1279C38.3638 30.0295 39.1888 29.5606 39.0437 29.2958C38.9689 29.1977 38.8601 29.1303 38.7382 29.1067C38.4433 28.9699 38.133 28.8683 37.8138 28.8042C37.6534 28.8042 37.5159 28.8949 37.3784 28.9479C36.5763 28.5697 36.2937 29.0387 35.7132 29.1219C35.4352 29.1516 35.1543 29.1053 34.9011 28.988C34.6478 28.8706 34.432 28.6867 34.277 28.4562C33.6354 27.4653 34.5979 26.8602 35.4152 26.6106C34.3382 26.482 33.8875 26.8451 33.6507 27.9116C33.1886 27.773 32.716 27.6718 32.2375 27.609C28.6625 27.0871 25.8361 28.131 24.1937 29.8783C22.6109 31.621 21.7088 33.8662 21.65 36.2094C21.6041 38.4786 22.3069 39.8401 23.5062 41.837C22.1346 40.6616 21.0838 39.1633 20.4507 37.4801C20.2368 37.7297 20.3055 38.0399 20.2444 38.3273C19.3354 36.9658 20.7333 33.5771 21.3902 32.0643C20.9296 32.3337 20.5188 32.679 20.1757 33.0854C20.1145 31.1566 21.8333 29.1975 23.5979 27.6242C23.0938 27.7284 22.6075 27.9042 22.1541 28.1461C23.8423 26.3837 26.9361 25.3625 29.7166 25.2642C29.0172 25.0837 28.3046 24.9573 27.5854 24.886C29.7625 24.4397 31.2597 24.417 32.7263 23.4564C33.4062 23.8951 34.2083 24.3414 34.5979 24.2128C33.4597 23.3656 31.2673 21.4217 30.8548 19.9089ZM37.2791 24.5002C37.4115 24.6771 37.5571 24.844 37.7145 24.9995C37.8106 25.1008 37.9311 25.1762 38.0648 25.2186C38.1985 25.2609 38.3408 25.2688 38.4784 25.2415C38.4321 25.0764 38.3627 24.9186 38.2722 24.7725C38.2164 24.7125 38.1403 24.6748 38.0583 24.6666C37.7909 24.6213 37.5312 24.5456 37.2944 24.5002H37.2791Z" fill="black"/>
<path fill-rule="evenodd" clip-rule="evenodd" d="M36.3396 29.5908C34.048 32.2155 30.4119 32.6164 27.9369 32.7072C27.6466 32.7072 27.0813 32.7677 26.9362 32.9719C26.9043 33.0426 26.8984 33.122 26.9193 33.1966C26.9402 33.2711 26.9867 33.3361 27.0508 33.3804C29.9001 35.3622 33.6049 33.9099 35.5528 32.9568C33.2612 34.9613 29.5105 35.3092 26.2716 34.1368C25.8591 34.0007 25.5994 33.9553 25.4619 34.1368C25.4078 34.2105 25.3787 34.2992 25.3787 34.3902C25.3787 34.4812 25.4078 34.5699 25.4619 34.6436C26.3709 36.3228 27.0278 37.6163 29.3348 38.3424C26.6535 38.1911 24.973 35.6647 24.5758 34.3183C24.5376 36.5876 26.5237 38.1004 27.341 39.0232C26.2716 39.0686 25.2327 39.1518 24.782 39.9384C24.4612 40.4376 24.4688 41.1638 24.0181 41.8294C22.773 39.5602 21.7876 36.3228 22.7195 33.509C23.0616 32.3107 23.6768 31.2062 24.5178 30.2804C25.3587 29.3546 26.403 28.6322 27.5702 28.1688C26.8416 28.9587 26.1727 29.8005 25.5688 30.6876C25.0723 31.6104 25.6834 31.9357 26.3709 30.7481C27.3334 33.0551 34.2389 31.6785 36.057 29.4774L36.7139 29.2051L36.3855 29.6211L36.3396 29.5908ZM31.9702 49.5069C32.0184 49.4475 32.0834 49.4036 32.1568 49.3808C32.2302 49.3579 32.3088 49.357 32.3827 49.3783C32.4479 49.3948 32.5081 49.4266 32.5583 49.471C32.6086 49.5154 32.6473 49.571 32.6712 49.6333C32.6952 49.6956 32.7037 49.7626 32.696 49.8288C32.6883 49.895 32.6647 49.9584 32.6271 50.0137C32.4133 50.3012 32.0619 50.5054 31.8251 50.7701C31.7355 50.8922 31.6659 51.0275 31.6188 51.171C31.5525 50.8825 31.5495 50.5833 31.6101 50.2936C31.6708 50.0039 31.7936 49.7304 31.9702 49.4918V49.5069ZM28.7466 48.5085C28.8373 48.4421 28.947 48.4063 29.0598 48.4063C29.1725 48.4063 29.2823 48.4421 29.373 48.5085C29.4464 48.5938 29.4952 48.6972 29.514 48.8078C29.5328 48.9183 29.5211 49.0318 29.4799 49.1363C29.2953 49.3166 29.0872 49.4718 28.8612 49.5977C28.5027 49.7768 28.2071 50.0589 28.0133 50.407C28.007 49.9812 28.0902 49.5588 28.2577 49.1665C28.3609 48.9072 28.5292 48.6781 28.7466 48.5009V48.5085ZM36.4237 48.1151C36.4778 48.0967 36.5354 48.0905 36.5923 48.097C36.6491 48.1036 36.7038 48.1227 36.7521 48.153C36.803 48.188 36.8461 48.2329 36.8789 48.2849C36.9117 48.3369 36.9336 48.3949 36.9431 48.4555C36.97 48.7323 37.0237 49.0059 37.1035 49.2724C37.1562 49.3814 37.2148 49.4875 37.2792 49.5901C37.0316 49.4953 36.8094 49.3452 36.6299 49.1514C36.4333 48.9787 36.2925 48.7524 36.2251 48.5009C36.2093 48.4238 36.2203 48.3438 36.2564 48.2737C36.2924 48.2037 36.3514 48.1478 36.4237 48.1151ZM26.3709 46.6023C26.4604 46.5689 26.5578 46.5619 26.6514 46.582C26.7449 46.6021 26.8305 46.6486 26.898 46.7158C27.0355 46.8595 26.9744 47.0562 26.9667 47.2226C26.9535 47.2823 26.9247 47.3375 26.8831 47.3826C26.8416 47.4277 26.7887 47.4613 26.7299 47.4798C26.4014 47.6386 26.0195 47.7748 25.6987 47.9336C25.4916 48.0382 25.3113 48.1883 25.1716 48.3723C25.2232 48.0767 25.3212 47.7909 25.4619 47.5252C25.6559 47.1281 25.9749 46.8043 26.3709 46.6023ZM40.0216 44.3331C40.0216 44.197 40.1285 44.076 40.2737 44.0079C40.5286 44.0331 40.7742 44.1159 40.9917 44.2499C41.127 44.3075 41.2723 44.3383 41.4195 44.3407C41.1444 44.5188 40.8239 44.6159 40.4952 44.6206C40.2889 44.6206 40.0521 44.5071 40.0216 44.3331ZM24.3695 43.138C24.4178 43.1176 24.4698 43.1071 24.5223 43.1071C24.5748 43.1071 24.6268 43.1176 24.6751 43.138C24.7787 43.1608 24.8712 43.2185 24.9367 43.3012C25.0022 43.384 25.0366 43.4867 25.0341 43.5919C25.0341 43.7961 25.0341 44.0457 24.8049 44.1743C24.333 44.3789 23.8738 44.6112 23.4299 44.8702C23.2971 44.967 23.181 45.0845 23.0862 45.2181C23.1568 44.6288 23.3922 44.0708 23.766 43.607C23.9307 43.4094 24.1366 43.2494 24.3695 43.138ZM30.0376 40.9369C30.3631 40.8133 30.7056 40.7393 31.0535 40.7175C30.763 40.7872 30.4982 40.9367 30.2896 41.1487C30.2209 41.247 30.1521 41.3832 30.2896 41.4739C30.4271 41.5647 30.5876 41.5193 30.7251 41.5723C30.8626 41.6252 30.8091 41.8067 30.7938 41.9202C30.6811 42.2861 30.5081 42.6311 30.282 42.9413C30.2253 43.0122 30.1956 43.1006 30.198 43.191C30.3049 43.191 30.3737 43.1229 30.4501 43.0851C30.7679 42.8953 31.0583 42.6638 31.3133 42.3967C31.4126 42.2757 31.5653 42.1698 31.5806 42.011C31.5959 41.8521 31.382 41.8521 31.3667 41.7462C31.499 41.5581 31.6936 41.4216 31.9167 41.3605C32.1663 41.2433 32.4458 41.2037 32.7185 41.2469C32.9912 41.2901 33.2443 41.4141 33.4445 41.6025C33.1975 41.5091 32.9415 41.4407 32.6806 41.3983C32.5508 41.3983 32.398 41.4512 32.3674 41.5571C32.3369 41.663 32.3674 41.8446 32.3216 41.9883C32.2504 42.2557 32.1203 42.5043 31.9407 42.7161C31.7611 42.928 31.5364 43.0979 31.2827 43.2136C31.0839 43.2792 30.896 43.3735 30.7251 43.4935C30.6733 43.5349 30.6309 43.5865 30.6006 43.6452C30.5703 43.7038 30.5529 43.7681 30.5494 43.8339C30.6758 43.871 30.8071 43.8889 30.9389 43.8869C31.2303 43.9277 31.5271 43.9071 31.8098 43.8263C32.0619 43.728 32.1612 43.486 32.4285 43.4028C32.7572 43.2864 33.115 43.2788 33.4484 43.3811C33.7818 43.4834 34.0726 43.6901 34.2771 43.9701C34.0775 43.8497 33.8709 43.7411 33.6584 43.6448C33.5415 43.6013 33.4156 43.5868 33.2918 43.6026C33.1679 43.6184 33.0499 43.6641 32.948 43.7356C32.7615 43.8774 32.6056 44.0549 32.4896 44.2575C32.4438 44.318 32.398 44.4012 32.291 44.4163C32.1841 44.4315 31.9473 44.2953 31.7639 44.3407C31.5806 44.3861 31.2827 44.5298 31.0001 44.5903C30.8239 44.6282 30.6415 44.6282 30.4653 44.5903C30.1569 44.5155 29.8426 44.4674 29.5258 44.4466C29.454 44.435 29.3805 44.4391 29.3106 44.4588C29.2406 44.4784 29.1759 44.5129 29.1209 44.56C29.0293 44.7048 28.9841 44.8735 28.991 45.0441C28.8696 44.6479 28.7777 44.2434 28.716 43.8339C28.6342 43.3338 28.6188 42.8252 28.6702 42.3211C28.8052 42.5294 28.8817 42.7696 28.8917 43.017C28.8974 43.0816 28.9245 43.1425 28.9686 43.1904C29.0128 43.2382 29.0717 43.2703 29.1362 43.2817C29.3577 43.2817 29.4799 43.1153 29.5945 42.9943C29.7972 42.7636 29.9084 42.468 29.9077 42.1622C29.9077 42.0261 29.6938 42.0261 29.6174 41.9278C29.5535 41.8536 29.5129 41.7624 29.5007 41.6657C29.4885 41.5689 29.5051 41.4707 29.5487 41.3832C29.6005 41.2832 29.6717 41.1943 29.7582 41.1217C29.8447 41.049 29.9448 40.9939 30.0528 40.9596L30.0376 40.9369ZM41.8626 40.2712C41.8626 40.1653 42.023 40.1351 42.1376 40.1427C42.2521 40.1502 42.5577 40.1427 42.7716 40.1427C42.604 40.3213 42.3856 40.4453 42.1452 40.4982C41.9771 40.4982 41.8244 40.4074 41.8626 40.2788V40.2712ZM42.0153 37.6768C42.1742 37.62 42.3276 37.5491 42.4737 37.465C42.4475 37.5637 42.3998 37.6556 42.3337 37.734C42.2677 37.8125 42.1851 37.8756 42.0917 37.9188C41.9237 37.9188 41.8702 37.7146 42.0153 37.6768ZM34.4376 34.9915C34.4843 35.3999 34.6448 35.7874 34.9011 36.1106C35.1574 36.4339 35.4994 36.6802 35.8889 36.822C36.9197 37.0036 37.9748 37.0036 39.0056 36.822C39.8077 36.822 40.5334 36.6481 41.1445 37.0641C41.4013 37.2583 41.5973 37.5206 41.7098 37.8205C41.8462 38.0915 41.9685 38.3692 42.0764 38.6525C42.1123 38.7791 42.1212 38.9116 42.1028 39.0418C42.0844 39.172 42.039 39.297 41.9695 39.4089C41.748 39.7183 41.6064 40.0767 41.557 40.4528C41.5112 40.8158 41.4424 41.1638 41.3737 41.5193C41.3142 41.889 41.201 42.2482 41.0376 42.5858C40.8619 42.896 40.5487 43.1304 40.3424 43.4254C40.0254 43.8909 39.7807 44.4008 39.6167 44.9383C39.4716 45.3467 39.4181 45.7779 39.2959 46.1939C39.257 46.4051 39.1701 46.6047 39.0417 46.7777C38.9133 46.9507 38.7468 47.0925 38.5549 47.1923C37.9147 47.4355 37.2619 47.6451 36.5994 47.8202C36.0845 48.0447 35.6058 48.3428 35.1785 48.7051C34.8474 49.0294 34.4324 49.2571 33.9792 49.3632C33.0167 49.5069 32.7723 48.7505 31.0383 49.3632C30.9346 49.4128 30.821 49.4385 30.706 49.4385C30.5909 49.4385 30.4773 49.4128 30.3737 49.3632C29.9612 49.1665 29.9153 48.6068 29.4494 48.3572C28.9553 48.1878 28.4423 48.0786 27.9216 48.0319C27.811 48.0167 27.7051 47.9777 27.6114 47.9176C27.5177 47.8574 27.4385 47.7777 27.3792 47.684C27.2264 47.3814 27.2264 47.0562 27.0966 46.7536C26.7605 46.0729 25.6528 45.8535 25.3396 45.2408C25.0264 44.6281 25.4466 44.2424 25.4542 43.728C25.416 43.0245 24.9424 42.6766 24.0028 42.6463C24.4483 42.0004 24.7504 41.2682 24.8889 40.4982C24.9697 40.2004 25.1435 39.9357 25.3855 39.7418C25.7057 39.5801 26.0479 39.4654 26.4014 39.4014C26.7937 39.3077 27.205 39.3287 27.5855 39.4619C28.4716 39.9384 28.2653 41.2092 27.7994 41.7311C27.1653 42.4421 25.5688 42.2984 25.8438 41.1865C26.1723 41.4588 26.4931 41.8748 26.9514 41.3832C26.9914 41.3342 27.0106 41.2718 27.0049 41.2092C26.9709 41.1027 26.9115 41.0058 26.8317 40.9268C26.752 40.8478 26.6542 40.789 26.5466 40.7553C26.4163 40.701 26.2722 40.6878 26.1341 40.7175C25.9337 40.7735 25.747 40.8695 25.5854 40.9996C25.4238 41.1297 25.2908 41.2911 25.1945 41.4739C24.8355 42.1774 25.6146 42.7371 26.5084 42.601C27.1701 42.4605 27.7772 42.135 28.2577 41.663C28.2188 42.4857 28.2444 43.3101 28.3341 44.1289C28.4402 44.8229 28.6541 45.4965 28.9681 46.1258C29.2999 46.6672 29.8056 47.0827 30.4042 47.3058C31.1192 47.5438 31.8748 47.639 32.6271 47.5857C34.1023 47.5083 35.5467 47.1378 36.8744 46.4964C38.5473 45.619 38.7841 44.9156 39.6091 43.5389C39.9787 42.8594 40.2979 42.154 40.5639 41.4285C40.8442 40.7427 40.9969 40.0124 41.0146 39.2728C41.0321 38.8202 40.8889 38.3759 40.6098 38.0172C39.8459 37.1019 38.3181 37.4952 36.8744 37.4499C36.7598 37.6768 36.6681 37.934 36.8744 38.1457C37.2334 38.5239 38.0889 38.4634 38.6619 38.5088C36.1945 39.5073 33.9792 38.4181 33.3681 36.4968C33.8799 37.1322 34.7126 38.4332 35.973 38.0474C36.4313 37.9113 36.2251 37.586 36.0723 37.344C36.0723 37.2532 35.8813 37.2532 35.7896 37.2229C35.3159 37.0981 34.9101 36.795 34.659 36.3781C34.4078 35.9612 34.3311 35.4636 34.4452 34.9915H34.4376ZM26.516 34.5755C26.6994 34.7192 26.7605 34.9159 26.9514 35.0596C28.7008 36.3758 30.2438 36.3682 32.4667 36.4438C30.4959 36.9204 27.9751 36.6254 26.5695 35.3092C26.3897 35.1452 26.2375 34.9536 26.1188 34.7419C26.0195 34.4394 26.2945 34.4015 26.516 34.5755ZM34.7813 34.2124C36.5688 34.1217 38.3945 34.7873 38.9674 36.4817C38.5039 36.1758 37.9484 36.0369 37.3938 36.0883C37.2945 36.0883 37.2028 36.164 37.1876 36.2472C37.1723 36.3304 37.241 36.5195 37.2945 36.6632C36.8941 36.748 36.4775 36.716 36.0951 36.571C35.7127 36.426 35.3811 36.1742 35.1403 35.8463C35.3548 35.9716 35.5863 36.0659 35.8278 36.1261C36.0521 36.1642 36.2824 36.1468 36.4983 36.0755C36.7142 36.0043 36.9089 35.8813 37.0653 35.7177C37.241 35.5286 37.1264 35.2865 36.9278 35.1428C36.2529 34.7273 35.5191 34.4137 34.7508 34.2124H34.7813ZM36.607 31.0204C36.8438 30.854 37.0424 30.6573 37.2563 30.4758C36.2633 31.9886 33.8341 33.1762 31.9091 33.5014C30.9466 33.6905 28.8535 33.9401 27.9521 33.4636C27.8528 33.4107 27.7535 33.2972 27.8452 33.2064C28.0185 33.1242 28.2127 33.0952 28.4028 33.1232C28.7771 33.1232 29.1667 33.1232 29.5563 33.1232C30.5306 33.1011 31.5015 32.9999 32.4591 32.8207C33.9499 32.5194 35.3556 31.897 36.5764 30.9977L36.607 31.0204ZM18.5181 25.5516C18.7967 25.4963 19.0858 25.5307 19.3431 25.65C19.6135 25.7842 19.835 25.9983 19.9771 26.2626C20.0231 26.3132 20.0562 26.3739 20.0735 26.4397C20.0908 26.5056 20.0918 26.5745 20.0764 26.6408L19.8167 26.6938C19.7403 26.7619 19.7633 26.8602 19.7633 26.9434C19.8442 27.3702 19.9938 27.7813 20.2063 28.1612C20.2375 28.221 20.2852 28.2709 20.3438 28.3049C20.3299 27.845 20.3736 27.3852 20.4737 26.9358C20.5119 26.8678 20.5501 26.7846 20.6494 26.7694C20.7487 26.7543 20.932 26.9056 21.1001 26.8753C21.2681 26.8451 21.2146 26.6635 21.207 26.5576C21.1612 26.2778 20.8862 26.0887 20.7028 25.8618C21.1126 26.0736 21.4482 26.4032 21.6653 26.8073C21.7227 26.9222 21.7373 27.0534 21.7066 27.178C21.6758 27.3025 21.6017 27.4123 21.4973 27.488C21.3755 27.5527 21.2335 27.5689 21.1001 27.5334C20.984 27.6664 20.9065 27.828 20.8756 28.0011C20.8446 28.1742 20.8615 28.3523 20.9244 28.5167C20.9244 28.5999 20.9626 28.7436 21.1153 28.7361C21.3866 28.6329 21.6433 28.4956 21.8792 28.3276C21.268 28.9246 20.7527 29.6108 20.3514 30.3624C20.382 30.1745 20.382 29.9829 20.3514 29.795C20.3266 29.7405 20.2907 29.6915 20.2461 29.6512C20.2014 29.6109 20.1489 29.58 20.0917 29.5606C19.8014 29.4168 19.4577 29.3412 19.1598 29.2051C18.8875 29.04 18.6574 28.8147 18.4876 28.547C18.3577 28.3957 18.1209 28.4789 17.9681 28.3579C17.9303 28.2118 17.9072 28.0623 17.8994 27.9116C17.8535 27.6771 17.8459 27.3746 17.5862 27.2233C17.2972 27.092 16.9781 27.0398 16.6619 27.072C16.9004 26.9623 17.1635 26.9154 17.4258 26.9358C17.8096 26.988 18.1591 27.1827 18.4035 27.4805C18.5716 27.6696 18.5334 27.9116 18.6938 28.1007C18.8297 28.2287 18.9842 28.3357 19.1521 28.4184C19.3262 28.5371 19.5202 28.6242 19.7251 28.6756C19.7558 28.5637 19.7572 28.446 19.7291 28.3335C19.7011 28.221 19.6444 28.1174 19.5646 28.0326C19.3057 27.7397 19.1432 27.3756 19.0987 26.9888C19.0545 26.7294 19.1002 26.4628 19.2285 26.2324C19.2896 26.1114 19.4042 25.9752 19.3049 25.8466C19.2056 25.718 18.7702 25.6197 18.4952 25.5441L18.5181 25.5516ZM29.5639 21.3385C30.366 21.8528 31.4126 22.4882 32.2834 22.9269C32.0924 23.0782 31.8633 23.3051 31.6112 23.3051C30.7905 22.8073 30.0913 22.1357 29.5639 21.3385ZM30.7327 19.6063C31.8508 21.0738 33.3105 22.2519 34.9876 23.0404C35.4594 23.2905 35.9809 23.4351 36.5153 23.464C36.8285 23.464 37.1264 23.2824 37.432 23.2824C37.7862 23.2895 38.1298 23.403 38.4174 23.6077C38.456 23.6291 38.4896 23.6584 38.5159 23.6936C38.5422 23.7288 38.5607 23.7691 38.5702 23.8119C38.6202 24.1935 38.7977 24.5477 39.0744 24.8179C39.1871 24.8876 39.3133 24.9331 39.4449 24.9513C39.5765 24.9696 39.7105 24.9602 39.8383 24.9238C39.8585 25.0345 39.9092 25.1375 39.9846 25.2215C40.0601 25.3056 40.1574 25.3674 40.266 25.4003C40.5105 25.4457 40.7091 25.2037 40.9688 25.2718C41.0758 25.4079 41.1369 25.5441 41.2514 25.6802C41.366 25.8164 41.5188 25.8012 41.641 25.8844C42.0511 26.1356 42.3737 26.5052 42.5653 26.9434C42.3134 26.6125 41.9792 26.3519 41.5952 26.187C41.5952 26.7846 41.5952 27.6317 41.1521 27.9494C41.1845 27.5672 41.1049 27.1838 40.923 26.8451C40.5853 27.1629 40.181 27.403 39.7389 27.5485C39.9223 27.3292 40.2737 27.0871 40.1591 26.7921C40.0468 26.7215 39.9205 26.6755 39.7887 26.6572C39.657 26.639 39.5228 26.6489 39.3952 26.6862C39.0115 26.7853 38.6577 26.9747 38.3639 27.2384C38.2964 27.0339 38.2147 26.8342 38.1195 26.6408C37.9056 26.6787 37.1112 26.9358 37.3556 27.2838C37.6001 27.6317 38.2494 27.541 38.5702 27.6015C38.7803 27.6782 38.9544 27.8291 39.0591 28.0251C39.0591 27.8662 39.0591 27.7074 39.1126 27.5485C39.4553 27.9561 39.7668 28.3884 40.0445 28.842C40.4417 28.668 40.5181 28.4865 40.5639 27.9872C40.7059 28.2132 40.7702 28.4785 40.7473 28.7436C40.8599 28.6603 40.9472 28.5477 40.9994 28.4184C41.1208 28.8161 41.0869 29.2444 40.9044 29.6185C40.7218 29.9925 40.404 30.285 40.0139 30.438C40.1896 29.9841 40.2584 29.5908 39.6396 29.5908C39.1257 29.635 38.6152 29.7133 38.1119 29.8253C38.2952 29.727 39.1278 29.258 38.9827 28.9857C38.9036 28.8937 38.7963 28.83 38.6771 28.8042C38.3818 28.6684 38.0717 28.5669 37.7528 28.5016C37.5924 28.5016 37.4549 28.5924 37.3174 28.6453C36.5077 28.2671 36.2251 28.7361 35.6521 28.8193C35.3769 28.8492 35.0985 28.8045 34.8469 28.69C34.5953 28.5754 34.3799 28.3952 34.2237 28.1688C33.582 27.1779 34.5369 26.5728 35.3542 26.3232C34.2848 26.1946 33.8264 26.5576 33.5896 27.6242C33.1302 27.4855 32.6602 27.3843 32.1841 27.3216C28.6091 26.7997 25.7827 27.8435 24.1403 29.5908C22.5575 31.3336 21.6554 33.5788 21.5966 35.9219C21.5508 38.1911 22.2535 39.5527 23.4528 41.5496C22.0813 40.3741 21.0305 38.8758 20.3973 37.1927C20.1758 37.4423 20.2521 37.7524 20.191 38.0398C19.1827 36.6859 20.5806 33.2821 21.2376 31.7541C20.7769 32.0236 20.3662 32.3689 20.023 32.7753C19.9619 30.8465 21.6806 28.8874 23.4452 27.314C22.9408 27.4172 22.4544 27.5931 22.0014 27.836C23.6896 26.0735 26.7758 25.0524 29.5639 24.9465C28.8635 24.7722 28.1512 24.6483 27.4327 24.5759C29.6098 24.1296 31.0994 24.1069 32.5737 23.1463C33.2535 23.585 34.0556 24.0313 34.4452 23.9027C33.307 23.0706 31.1681 21.1267 30.7327 19.6063ZM37.1646 24.2052C37.2929 24.383 37.4388 24.5477 37.6001 24.6969C37.6913 24.8047 37.8112 24.8852 37.9461 24.9293C38.0811 24.9734 38.2258 24.9794 38.3639 24.9465C38.3209 24.7803 38.2512 24.622 38.1577 24.4775C38.1322 24.4471 38.1009 24.422 38.0654 24.4039C38.03 24.3857 37.9912 24.3747 37.9514 24.3716C37.6841 24.3263 37.4244 24.2506 37.1876 24.2052H37.1646Z" fill="white"/>
<path fill-rule="evenodd" clip-rule="evenodd" d="M13.9805 22.8279C19.4729 19.4317 25.775 16.7238 31.3743 15.8161C36.9736 16.7238 43.2757 19.4317 48.7757 22.8279V23.2061C43.3444 19.825 37.1493 17.1171 31.634 16.1792C26.0271 17.0188 19.7097 19.6511 14.2326 22.9868C14.1562 35.8457 17.7007 46.1403 23.4757 52.3353C17.5555 46.2386 13.9042 35.9062 13.9805 22.8279Z" fill="black"/>
</g>
<defs>
<clipPath id="clip0_2169_1436">
<rect width="137.5" height="44" fill="white" transform="translate(12.8334 14.6665)"/>
</clipPath>
</defs>
</svg>
