<svg width="161" height="73" viewBox="0 0 161 73" fill="none" xmlns="http://www.w3.org/2000/svg">
<g clip-path="url(#clip0_2888_2112)">
<path d="M12.536 32.6071C8.76812 32.0079 5.11074 31.0991 1.97241 28.7939C1.02151 28.1158 0.28515 27.1812 -0.149866 26.1003C-0.659728 24.8341 -0.444371 23.7329 0.444667 22.7195C1.73313 21.239 3.38972 20.255 5.13835 19.4212C10.3787 16.9054 15.9614 15.4633 21.6251 14.2905C31.1965 12.3042 40.8692 11.7252 50.6063 12.1136C62.2779 12.5864 73.7342 14.3492 84.7726 18.32C86.3077 18.8697 87.8318 19.4652 89.2656 20.2733C86.9814 19.8335 84.7063 19.3883 82.4147 19.0291C73.0265 17.5568 63.5198 16.969 54.0207 17.2737C45.6862 17.5265 37.3922 18.3145 29.2142 19.9984C24.0603 21.0594 18.9709 22.3586 14.3195 24.9459C13.401 25.4399 12.5545 26.0564 11.8034 26.7783C10.3419 28.2186 10.2719 29.3088 11.5125 30.9397C11.9635 31.5334 12.5838 31.931 13.1342 32.4056C13.0808 32.8802 12.766 32.6236 12.536 32.6071Z" fill="#D72127"/>
<path d="M121.994 34.6886C123.576 33.2556 125.199 32.7811 127.067 33.3253C127.932 33.551 128.704 34.0398 129.276 34.7234C129.585 35.1064 129.755 35.066 130.11 34.7784C130.894 34.1341 131.802 33.6576 132.779 33.3786C133.756 33.0996 134.781 33.024 135.788 33.1567C138.402 33.4444 140.013 35.394 140.079 38.2288C140.129 40.413 139.626 42.5294 139.343 44.6715C139.059 46.8135 138.632 48.9318 138.328 51.0702C138.255 51.5869 138.085 51.728 137.592 51.7152C136.488 51.6859 135.383 51.6895 134.279 51.7152C133.782 51.7262 133.681 51.5961 133.765 51.083C134.334 47.6619 134.85 44.2299 135.411 40.8051C135.493 40.2636 135.529 39.7163 135.52 39.1688C135.52 37.6717 134.732 37.0689 133.259 37.4225C132.043 37.7157 131.349 38.5531 130.923 39.6672C130.277 41.3658 130.139 43.1689 129.837 44.9353C129.49 46.9729 129.195 49.0197 128.897 51.0665C128.827 51.5466 128.632 51.7372 128.124 51.7188C127.051 51.6822 125.976 51.662 124.906 51.7188C124.231 51.7573 124.223 51.433 124.303 50.9547C124.768 48.131 125.239 45.3073 125.698 42.4799C125.891 41.2779 126.125 40.0776 125.994 38.8499C125.869 37.6571 125.138 37.1367 123.958 37.4133C122.869 37.6717 122.158 38.3625 121.685 39.3593C120.872 41.069 120.765 42.9344 120.452 44.7539C120.097 46.8575 119.775 48.9684 119.467 51.0738C119.395 51.5686 119.197 51.7317 118.7 51.7133C117.719 51.6527 116.735 51.6527 115.755 51.7133C114.934 51.7848 114.796 51.5008 114.919 50.7678C115.513 47.1965 116.077 43.6215 116.647 40.041C116.944 38.1775 117.249 36.3157 117.516 34.4467C117.61 33.7852 117.798 33.4169 118.589 33.4994C119.447 33.5566 120.308 33.5615 121.166 33.514C121.845 33.5122 122.554 33.4297 121.994 34.6886Z" fill="#010101"/>
<path d="M92.8292 33.5305C93.6262 33.5305 94.3864 33.5452 95.1429 33.5305C95.5938 33.5177 95.8313 33.6001 95.7264 34.1444C95.5239 35.1888 95.3564 36.2394 95.2239 37.2961C95.176 37.6772 95.0398 37.8458 94.6606 37.8311C94.3238 37.8183 93.987 37.8311 93.6501 37.8311C92.126 37.8311 92.1445 37.8311 91.9125 39.3447C91.3033 43.2843 90.6664 47.224 90.0719 51.1581C90.0056 51.5961 89.851 51.7225 89.4405 51.717C88.3067 51.7005 87.1728 51.6877 86.039 51.717C85.5218 51.7317 85.415 51.5448 85.4868 51.0794C85.9371 48.3808 86.3783 45.6817 86.8102 42.982C87.0532 41.4794 87.2612 39.9732 87.5465 38.4798C87.6514 37.9301 87.5097 37.8092 86.9704 37.8128C85.7114 37.8128 85.7132 37.7927 85.9525 36.51C86.0353 36.061 86.1016 35.6103 86.177 35.1595C86.2636 34.6519 86.201 34.0289 86.4789 33.6643C86.7568 33.2996 87.3992 33.5415 87.8833 33.5433C88.3288 33.5433 88.3619 33.2758 88.4116 32.9606C88.6564 31.3976 88.9288 29.8456 89.1479 28.2734C89.2178 27.7585 89.4258 27.621 89.9154 27.6357C90.9885 27.6668 92.0616 27.6687 93.1329 27.6357C93.6722 27.6174 93.8084 27.764 93.709 28.3064C93.3869 30.0086 93.1255 31.7238 92.8292 33.5305Z" fill="#010101"/>
<path d="M12.5359 32.607C12.7311 32.5245 13.0035 32.6565 13.136 32.3963C13.2888 32.4182 13.4416 32.4952 13.4379 32.6418C13.4379 32.8653 13.2188 32.7756 13.1084 32.7627C12.9135 32.727 12.722 32.6749 12.5359 32.607Z" fill="#E04047"/>
<path d="M63.9345 34.0601C63.4651 27.8519 58.0444 22.9356 51.718 22.9466C44.9518 22.9576 39.8071 26.0049 36.2786 31.6835C34.1987 35.0294 33.3612 38.7235 34.2134 42.6228C35.511 48.5635 40.5121 52.3675 46.8237 52.3675C49.7172 52.3675 52.5298 51.7024 55.1159 50.099C61.0667 46.4214 64.4793 41.2614 63.9345 34.0601ZM58.7254 38.0364C57.6947 42.9967 52.874 47.2735 47.7974 47.5428C42.1448 47.8415 38.4303 43.4016 39.1095 37.9557C39.7887 32.5099 45.2389 27.7035 50.7057 27.7511C56.3326 27.8024 59.8998 32.3798 58.7254 38.0364Z" fill="#010101"/>
<path d="M83.9093 39.8834C83.2596 35.2621 80.4489 32.9661 75.8933 33.1219C74.2588 33.1769 72.8102 33.7779 71.4959 34.8938C71.4729 34.7364 71.4729 34.5766 71.4959 34.4192C71.842 33.5488 71.3763 33.4847 70.675 33.5195C69.7547 33.5653 68.8343 33.5562 67.914 33.5195C67.3489 33.4994 67.0802 33.5855 66.9771 34.269C66.2408 39.0497 65.4512 43.8194 64.6781 48.5946C64.0615 52.4078 63.4578 56.2247 62.8246 60.0361C62.7123 60.7141 62.7362 61.0842 63.6142 60.9981C64.5607 60.9092 65.5134 60.9092 66.4599 60.9981C67.1961 61.0622 67.3121 60.7306 67.4023 60.1405C67.8993 56.8697 68.4275 53.6044 68.9724 50.1632C69.9755 51.1801 70.9971 51.7922 72.2414 52.0359C73.9495 52.3675 75.5932 52.1366 77.1891 51.5411C82.1957 49.6776 84.491 44.0356 83.9093 39.8834ZM76.151 47.2405C72.9059 48.9831 69.9829 47.2606 69.9884 43.6087C69.9884 40.5907 71.8438 38.1262 74.614 37.4482C76.8486 36.8985 78.8751 38.1481 79.3242 40.3452C79.8323 42.8098 78.3248 46.0732 76.151 47.2405Z" fill="#010101"/>
<path d="M160.821 33.569C159.963 33.6184 159.102 33.6153 158.244 33.5598C157.324 33.4774 156.713 33.6716 156.724 34.7362C156.724 34.7765 156.654 34.8187 156.588 34.892C155.811 34.0623 154.788 33.5017 153.668 33.2923C151.239 32.8159 148.949 33.2245 146.908 34.575C143.042 37.1403 141.441 40.8692 141.772 45.3953C141.988 48.3271 143.532 50.515 146.304 51.6254C148.956 52.6864 151.513 52.2869 153.878 50.689C153.935 50.5406 154.11 50.3647 154.186 50.4343C154.425 50.6524 154.252 50.8998 154.127 51.1233C154.051 51.5429 154.186 51.7189 154.653 51.706C155.758 51.6749 156.862 51.6694 157.966 51.706C158.535 51.7262 158.649 51.4953 158.728 50.9731C159.587 45.3818 160.475 39.7955 161.39 34.214C161.489 33.6295 161.329 33.5525 160.821 33.569ZM151.83 47.5483C148.993 48.6368 146.628 47.1818 146.343 44.1657C146.103 41.6205 147.644 38.8921 149.932 37.811C152.976 36.3744 155.794 38.1536 155.769 41.4941C155.748 44.2189 154.165 46.6541 151.831 47.5483H151.83Z" fill="#010101"/>
<path d="M105.861 33.0944C100.768 33.1072 95.9988 37.1128 95.0361 42.097C93.9023 47.9606 98.1045 52.6515 104.031 52.1403C108.843 51.7244 112.879 48.0394 113.938 43.3063C115.173 37.7945 111.442 33.0797 105.861 33.0944ZM109.614 41.8258C109.395 45.0581 107.006 47.6033 103.939 47.8727C101.353 48.0999 99.4187 46.3426 99.4077 43.7608C99.3948 40.3507 102.169 37.3712 105.386 37.3474C108.085 37.3419 109.795 39.1505 109.614 41.8258Z" fill="#010101"/>
</g>
<defs>
<clipPath id="clip0_2888_2112">
<rect width="161" height="73" fill="white"/>
</clipPath>
</defs>
</svg>
